<svg width="21" height="19" viewBox="0 0 21 19" fill="none" xmlns="http://www.w3.org/2000/svg">
<path d="M7.52935 18.462C8.30872 18.462 8.94053 17.8302 8.94053 17.0508C8.94053 16.2715 8.30872 15.6396 7.52935 15.6396C6.74997 15.6396 6.11816 16.2715 6.11816 17.0508C6.11816 17.8302 6.74997 18.462 7.52935 18.462Z" fill="#333333"/>
<path d="M16.7022 18.462C17.4816 18.462 18.1134 17.8302 18.1134 17.0508C18.1134 16.2715 17.4816 15.6396 16.7022 15.6396C15.9228 15.6396 15.291 16.2715 15.291 17.0508C15.291 17.8302 15.9228 18.462 16.7022 18.462Z" fill="#333333"/>
<path d="M4.20443 4.35023H20.0273L17.6989 12.4998C17.6158 12.7956 17.4379 13.0559 17.1925 13.2407C16.9471 13.4256 16.6478 13.5247 16.3406 13.5229H7.89114C7.58393 13.5247 7.28464 13.4256 7.03925 13.2407C6.79386 13.0559 6.61596 12.7956 6.53288 12.4998L3.34007 1.33382C3.29788 1.18631 3.20876 1.05657 3.08621 0.964263C2.96366 0.871954 2.81437 0.822104 2.66094 0.822266H1.1792" stroke="#333333" stroke-width="1.33421" stroke-linecap="round" stroke-linejoin="round"/>
</svg>
