<svg width="21" height="19" viewBox="0 0 21 19" fill="none" xmlns="http://www.w3.org/2000/svg">
<path d="M7.52935 18.5773C8.30872 18.5773 8.94053 17.9454 8.94053 17.1661C8.94053 16.3867 8.30872 15.7549 7.52935 15.7549C6.74997 15.7549 6.11816 16.3867 6.11816 17.1661C6.11816 17.9454 6.74997 18.5773 7.52935 18.5773Z" fill="#F9F9F9"/>
<path d="M16.7022 18.5773C17.4816 18.5773 18.1134 17.9454 18.1134 17.1661C18.1134 16.3867 17.4816 15.7549 16.7022 15.7549C15.9228 15.7549 15.291 16.3867 15.291 17.1661C15.291 17.9454 15.9228 18.5773 16.7022 18.5773Z" fill="#F9F9F9"/>
<path d="M4.20443 4.46546H20.0273L17.6989 12.6151C17.6158 12.9108 17.4379 13.1711 17.1925 13.356C16.9471 13.5408 16.6478 13.6399 16.3406 13.6382H7.89114C7.58393 13.6399 7.28464 13.5408 7.03925 13.356C6.79386 13.1711 6.61596 12.9108 6.53288 12.6151L3.34007 1.44905C3.29788 1.30155 3.20876 1.17181 3.08621 1.0795C2.96366 0.987188 2.81437 0.937338 2.66094 0.9375H1.1792" stroke="#F9F9F9" stroke-width="1.33421" stroke-linecap="round" stroke-linejoin="round"/>
</svg>

